<?xml version="1.0" encoding="UTF-8" standalone="no"?>
<!DOCTYPE svg PUBLIC "-//W3C//DTD SVG 1.1//EN"
 "http://www.w3.org/Graphics/SVG/1.1/DTD/svg11.dtd">
<!-- Generated by graphviz version 14.0.1 (20251006.0113)
 -->
<!-- Pages: 1 -->
<svg width="73pt" height="345pt"
 viewBox="0.00 0.00 73.00 345.00" xmlns="http://www.w3.org/2000/svg" xmlns:xlink="http://www.w3.org/1999/xlink">
<g id="graph0" class="graph" transform="scale(1 1) rotate(0) translate(4 340.79)">
<polygon fill="white" stroke="none" points="-4,4 -4,-340.79 69.26,-340.79 69.26,4 -4,4"/>
<!-- a -->
<g id="node1" class="node">
<title>a</title>
<ellipse fill="none" stroke="black" cx="45.13" cy="-316.66" rx="20.13" ry="20.13"/>
<text xml:space="preserve" text-anchor="middle" x="45.13" y="-311.61" font-family="Times,serif" font-size="14.00">17</text>
</g>
<!-- b -->
<g id="node2" class="node">
<title>b</title>
<ellipse fill="none" stroke="black" cx="21.13" cy="-242.52" rx="18" ry="18"/>
<text xml:space="preserve" text-anchor="middle" x="21.13" y="-237.47" font-family="Times,serif" font-size="14.00">9</text>
</g>
<!-- a&#45;&gt;b -->
<g id="edge1" class="edge">
<title>a&#45;&gt;b</title>
<path fill="none" stroke="black" d="M38.95,-297.08C36.26,-288.98 33.04,-279.33 30.09,-270.46"/>
<polygon fill="black" stroke="black" points="33.51,-269.65 27.03,-261.26 26.87,-271.86 33.51,-269.65"/>
</g>
<!-- c -->
<g id="node3" class="node">
<title>c</title>
<ellipse fill="none" stroke="black" cx="20.13" cy="-168.39" rx="20.13" ry="20.13"/>
<text xml:space="preserve" text-anchor="middle" x="20.13" y="-163.34" font-family="Times,serif" font-size="14.00">14</text>
</g>
<!-- b&#45;&gt;c -->
<g id="edge2" class="edge">
<title>b&#45;&gt;c</title>
<path fill="none" stroke="black" d="M20.89,-224.06C20.79,-216.95 20.67,-208.5 20.56,-200.4"/>
<polygon fill="black" stroke="black" points="24.06,-200.45 20.42,-190.49 17.06,-200.54 24.06,-200.45"/>
</g>
<!-- d -->
<g id="node4" class="node">
<title>d</title>
<ellipse fill="none" stroke="black" cx="20.13" cy="-92.13" rx="20.13" ry="20.13"/>
<text xml:space="preserve" text-anchor="middle" x="20.13" y="-87.08" font-family="Times,serif" font-size="14.00">16</text>
</g>
<!-- c&#45;&gt;d -->
<g id="edge3" class="edge">
<title>c&#45;&gt;d</title>
<path fill="none" stroke="black" d="M20.13,-147.88C20.13,-140.55 20.13,-132.02 20.13,-123.91"/>
<polygon fill="black" stroke="black" points="23.63,-124.03 20.13,-114.03 16.63,-124.03 23.63,-124.03"/>
</g>
<!-- e -->
<g id="node5" class="node">
<title>e</title>
<ellipse fill="none" stroke="black" cx="44.13" cy="-18" rx="18" ry="18"/>
<text xml:space="preserve" text-anchor="middle" x="44.13" y="-12.95" font-family="Times,serif" font-size="14.00">4</text>
</g>
<!-- d&#45;&gt;e -->
<g id="edge4" class="edge">
<title>d&#45;&gt;e</title>
<path fill="none" stroke="black" d="M26.31,-72.56C29.01,-64.45 32.22,-54.8 35.17,-45.94"/>
<polygon fill="black" stroke="black" points="38.39,-47.33 38.23,-36.74 31.75,-45.12 38.39,-47.33"/>
</g>
<!-- e&#45;&gt;a -->
<g id="edge5" class="edge">
<title>e&#45;&gt;a</title>
<path fill="none" stroke="black" d="M46.16,-36.16C47.29,-46.52 48.57,-60 49.13,-72 53.07,-155.7 50.99,-176.78 48.13,-260.52 47.86,-268.41 47.46,-276.93 47.03,-284.86"/>
<polygon fill="black" stroke="black" points="43.54,-284.58 46.46,-294.76 50.53,-284.98 43.54,-284.58"/>
</g>
</g>
</svg>
